<?xml version="1.0" encoding="UTF-8"?>
<svg id="_レイヤー_2" data-name="レイヤー 2" xmlns="http://www.w3.org/2000/svg" viewBox="0 0 221.3 44.2">
  <defs>
    <style>
      .cls-1 {
        fill: #fff;
      }

      .cls-2 {
        fill: #1cb086;
      }

      .cls-3 {
        fill: #52489a;
      }
    </style>
  </defs>
  <g id="_イヤー_2" data-name=" イヤー 2">
    <g>
      <path class="cls-1" d="m60.1,20.4v7.8c0,1.5.2,1.7,1.5,1.8h2.9c1,0,1.2-.4,1.2-1.8v-7.8h3.5v8.9c0,2.5-1.1,3.6-3.7,3.6h-5c-2.6.1-3.7-1-3.7-3.5v-9s3.3,0,3.3,0Z"/>
      <path class="cls-1" d="m77.1,30c1.1,0,1.3,0,1.5-.1.5-.1.6-.3.6-.8,0-.7-.4-1-1.3-1h-2.9c-2.3.1-3.5-.8-3.6-2.6v-2.5c.1-1.9,1.1-2.6,3.9-2.6h6.9v3h-6.2c-1.1,0-1.3.2-1.3,1,0,.6.2.7,1.1.7h3.7c2.3-.1,3.2.6,3.3,2.4v2.3c0,2.2-1.1,3.1-3.8,3.1h-7.6v-3c0,.1,5.7.1,5.7.1Z"/>
      <path class="cls-1" d="m88.4,28.1v.8c.1.9.4,1,1.9,1h7.2v3h-7.8c-3.1.1-4.7-1.2-4.7-4v-4.5c0-2.6,1.1-3.9,3.3-4h5.5c2.6.1,3.5.9,3.5,3.5v4.1c.1.1-8.9.1-8.9.1Zm5.4-2.7v-.8c0-1-.3-1.2-1.3-1.2h-2.6c-1.2,0-1.4.2-1.4,1.3v.7h5.3Z"/>
      <path class="cls-1" d="m105.4,16.5v3.8h5.8c1.7,0,2.4.2,3,.8.7.7.8,1.2.8,3.9v4.3c-.1,2.9-1,3.6-4.5,3.5h-8.5v-16.3h3.4Zm4,13.5c1.7,0,2-.3,2-1.7v-3.1c0-1.7-.2-1.9-1.9-1.8h-4.1v6.6h4Z"/>
      <path class="cls-1" d="m126.3,20.4c1.3,0,2.4.4,3.1,1,.8.7.9,1.3.9,3.4v4.6c.1,2.3-1.3,3.5-4,3.5h-5.4c-2.5-.1-3.7-1.2-3.7-3.7v-4.4c0-3.2,1.1-4.4,4-4.4,0,0,5.1,0,5.1,0Zm.6,4.8c0-1.3-.4-1.7-1.8-1.7h-2.4c-1.5,0-1.9.3-1.9,1.7v3.2c.1,1.3.3,1.5,1.7,1.6h2.8c1.4,0,1.7-.2,1.7-1.5l-.1-3.3h0Z"/>
      <path class="cls-1" d="m141.6,20.4c1.3,0,2.4.4,3.1,1,.8.7.9,1.3.9,3.4v4.6c.1,2.3-1.3,3.5-4,3.5h-5.4c-2.5-.1-3.7-1.2-3.7-3.7v-4.4c0-3.2,1.1-4.4,4-4.4h5.1Zm.6,4.8c0-1.3-.4-1.7-1.8-1.7h-2.4c-1.5,0-1.9.3-1.9,1.7v3.2c.1,1.3.3,1.5,1.7,1.6h2.8c1.4,0,1.7-.2,1.7-1.5v-3.3h-.1Z"/>
      <path class="cls-1" d="m150.6,20.5v-3.5h3.6v3.5h3.3v3h-3.3v5.2c0,1.2.1,1.3,1.3,1.3h1.8v3h-2.9c-3,0-3.8-.7-3.8-3.5v-6h-2.9v-3s2.9,0,2.9,0Z"/>
      <path class="cls-1" d="m165.3,30c1.1,0,1.3,0,1.5-.1.5-.1.6-.3.6-.8,0-.7-.4-1-1.3-1h-2.9c-2.3.1-3.5-.8-3.6-2.6v-2.5c.1-1.9,1.1-2.6,3.9-2.6h6.9v3h-6.3c-1.1,0-1.3.2-1.3,1,0,.6.2.7,1.1.7h3.7c2.3-.1,3.2.6,3.3,2.4v2.3c0,2.2-1.1,3.1-3.8,3.1h-7.6v-3c.1.1,5.8.1,5.8.1Z"/>
      <path class="cls-1" d="m176,20.5v-3.5h3.6v3.5h3.3v3h-3.3v5.2c0,1.2.1,1.3,1.3,1.3h1.8v3h-2.9c-3,0-3.8-.7-3.8-3.5v-6h-2.9v-3s2.9,0,2.9,0Z"/>
      <path class="cls-1" d="m192.2,23.4h-1.7c-1.4.1-1.6.3-1.6,2.1v7.5h-3.6v-8.3c0-3,.8-4.2,3.1-4.2h3.8c0-.1,0,2.9,0,2.9Z"/>
      <path class="cls-1" d="m197.3,33c-2.1,0-3.2-.8-3.4-2.5v-2.9c0-1.1.6-2,1.5-2.4.4-.2.8-.3,1.9-.3h5.2c-.1-1.3-.2-1.4-1.7-1.4h-6.8v-3h7.6c3.4,0,4.5,1,4.4,4.3v8.2h-8.7Zm5.4-5.5h-4.3c-1,0-1.2.2-1.3.8v.9c0,.6.2.7,1.3.7h4.3c0,.1,0-2.4,0-2.4Z"/>
      <path class="cls-1" d="m208.7,20.4h8.6c3.1-.1,4,.7,4,3.5v4.6c0,2.8-.9,3.6-4,3.5h-5.3v3.3h-3.4c.1.1.1-14.9.1-14.9Zm3.3,8.7h3.8c1.7,0,1.8-.1,1.8-1.9v-1.9c0-1.7-.1-1.8-1.8-1.9h-3.8s0,5.7,0,5.7Z"/>
    </g>
    <circle class="cls-1" cx="22.1" cy="22.1" r="22.1"/>
    <g>
      <circle class="cls-2" cx="8.2" cy="33.6" r="2.3"/>
      <path class="cls-2" d="m8.8,30.2q-.1,0,0,0c-.3,0-.5-.2-.5-.5,0-.1.3-3.5,3.3-4.3,1.7-.5,2.7.2,3.5.7.7.4,1,.6,1.6.4,1.2-.5,2.4-2.5,2.7-3.2.1-.2.4-.3.6-.2.2.1.3.4.2.6-.1.1-1.4,3-3.2,3.7-1,.4-1.7-.1-2.4-.5-.8-.5-1.5-.9-2.7-.6-2.3.7-2.6,3.4-2.6,3.5-.1.2-.3.4-.5.4Z"/>
      <path class="cls-3" d="m24.7,35.3h-.2c-.6-.1-1-.6-.9-1.2.9-6.5-.9-11.6-2.8-14-.9-1.1-1.8-1.7-2.6-1.8-.6-.1-1-.6-1-1.2.1-.6.6-1,1.2-1,1.4.1,2.9,1,4.1,2.6,2.2,2.8,4.3,8.4,3.2,15.6,0,.6-.5,1-1,1Z"/>
      <path class="cls-3" d="m30.7,34.5c-.5,0-1-.3-1.2-.8-.3-.7,0-1.4.7-1.7,1.1-.5,3.1-1.7,4.6-3.2,1.7-1.7,2.6-3.3,2.5-4.6-.3-2.5-5.6-2.1-5.7-2.1l-2.9.3,1.7-2.3c2.2-3,2.2-4.1,2.2-5.5,0-2.5-1.1-3.1-1.5-3.3-3.3-1.8-11.9,1.8-16.6,4.6-.6.4-1.4.2-1.8-.5-.4-.6-.2-1.4.5-1.8.1-.1,3.3-1.9,7.2-3.5,5.5-2.2,9.5-2.6,12-1.1,1.3.7,2.8,2.2,2.8,5.5,0,1.6-.1,2.9-1.3,5,2.7.3,5.6,1.4,6,4.4.2,2.1-.9,4.4-3.3,6.7-1.9,1.8-4.1,3.2-5.4,3.8-.1.1-.3.1-.5.1Z"/>
    </g>
  </g>
</svg>