<?xml version="1.0" encoding="UTF-8"?><svg id="_イヤー_2" xmlns="http://www.w3.org/2000/svg" viewBox="0 0 571.4 91.28"><defs><style>.cls-1{fill:#52499b;}.cls-2{fill:#1fb188;}</style></defs><g id="_イヤー_5"><g><path class="cls-2" d="M146.3,49.31v20.52c.05,3.96,.53,4.59,3.85,4.64h7.65c2.53-.05,3.17-1,3.22-4.69v-20.47h9.18v23.53c.11,6.54-2.85,9.5-9.71,9.55h-13.13c-6.8,.16-9.86-2.74-9.76-9.28v-23.79h8.7Z"/><path class="cls-2" d="M191.3,74.47c2.8,0,3.32,0,3.96-.16,1.21-.26,1.69-.84,1.69-2.06,0-1.74-1.11-2.53-3.48-2.53h-7.54c-6.01,.26-9.28-2.11-9.5-6.86v-6.7c.16-5.06,2.95-6.91,10.29-6.86h18.3v7.91h-16.56c-2.9,0-3.53,.47-3.53,2.74,0,1.58,.42,1.85,2.85,1.85h9.81c6.01-.16,8.49,1.64,8.76,6.28v6.12c-.11,5.8-2.9,8.12-10.02,8.18h-20.15v-7.91h15.14Z"/><path class="cls-2" d="M221.16,69.57v2.16c.21,2.32,1.06,2.74,5.12,2.74h18.94v7.91h-20.52c-8.23,.21-12.29-3.27-12.29-10.66v-11.97c.05-6.91,2.9-10.39,8.6-10.44h14.4c6.86,.21,9.12,2.48,9.34,9.34v10.92h-23.58Zm14.14-7.12v-2c-.05-2.53-.74-3.17-3.48-3.22h-6.86c-3.22,.05-3.75,.53-3.8,3.48v1.74h14.14Z"/><path class="cls-1" d="M265.95,39.03v10.02h15.4c4.43,.05,6.22,.53,7.86,2.16,1.74,1.85,2,3.11,2.06,10.39v11.45c-.32,7.75-2.58,9.55-11.76,9.34h-22.52V39.03h8.97Zm10.5,35.45c4.48-.05,5.27-.69,5.38-4.48v-8.23c-.05-4.38-.63-4.91-5.06-4.8h-10.81v17.51h10.5Z"/><path class="cls-1" d="M321.02,49.31c3.48,.05,6.33,.95,8.18,2.64,2,1.9,2.43,3.43,2.48,8.97v12.24c.16,6.12-3.48,9.34-10.55,9.23h-14.24c-6.7-.16-9.65-3.11-9.81-9.86v-11.66c.05-8.44,2.85-11.5,10.5-11.55h13.45Zm1.48,12.5c.11-3.32-1.05-4.43-4.85-4.59h-6.38c-4.01,.05-4.91,.84-4.96,4.59v8.49c.26,3.48,.9,4.06,4.38,4.17h7.28c3.59,.11,4.38-.63,4.54-4.06v-8.6Z"/><path class="cls-1" d="M361.43,49.31c3.48,.05,6.33,.95,8.18,2.64,2,1.9,2.43,3.43,2.48,8.97v12.24c.16,6.12-3.48,9.34-10.55,9.23h-14.24c-6.7-.16-9.65-3.11-9.81-9.86v-11.66c.05-8.44,2.85-11.5,10.5-11.55h13.45Zm1.48,12.5c.11-3.32-1.05-4.43-4.85-4.59h-6.38c-4.01,.05-4.91,.84-4.96,4.59v8.49c.26,3.48,.9,4.06,4.38,4.17h7.28c3.59,.11,4.38-.63,4.54-4.06v-8.6Z"/><path class="cls-1" d="M385.02,49.52v-9.18h9.44v9.18h8.81v7.91h-8.81v13.61c.05,3.27,.21,3.43,3.53,3.53h4.85v7.81h-7.7c-7.91,.11-10.02-1.74-10.13-9.13v-15.83h-7.65v-7.91h7.65Z"/><path class="cls-1" d="M423.95,74.47c2.8,0,3.32,0,3.96-.16,1.21-.26,1.69-.84,1.69-2.06,0-1.74-1.11-2.53-3.48-2.53h-7.54c-6.01,.26-9.28-2.11-9.5-6.86v-6.7c.16-5.06,2.95-6.91,10.29-6.86h18.3v7.91h-16.56c-2.9,0-3.53,.47-3.53,2.74,0,1.58,.42,1.85,2.85,1.85h9.81c6.01-.16,8.49,1.64,8.76,6.28v6.12c-.11,5.8-2.9,8.12-10.02,8.18h-20.15v-7.91h15.14Z"/><path class="cls-1" d="M452.17,49.52v-9.18h9.44v9.18h8.81v7.91h-8.81v13.61c.05,3.27,.21,3.43,3.53,3.53h4.85v7.81h-7.7c-7.91,.11-10.02-1.74-10.13-9.13v-15.83h-7.65v-7.91h7.65Z"/><path class="cls-1" d="M494.74,57.23h-4.54c-3.69,.16-4.17,.84-4.11,5.54v19.62h-9.5v-21.89c-.11-7.97,2.16-11.13,8.07-11.18h10.07v7.91Z"/><path class="cls-1" d="M508.25,82.39c-5.43,0-8.39-2.22-8.86-6.59v-7.75c0-2.8,1.53-5.22,4.06-6.44,1-.53,2.22-.69,4.96-.69h13.77c-.26-3.48-.48-3.69-4.38-3.69h-17.93v-7.91h19.99c8.92-.11,11.76,2.64,11.66,11.45v21.63h-23.26Zm14.4-14.35h-11.29c-2.69,.05-3.27,.42-3.32,2.16v2.37c0,1.53,.63,1.85,3.32,1.9h11.29v-6.44Z"/><path class="cls-1" d="M538.27,49.37h22.63c8.28-.16,10.55,1.85,10.5,9.34v12.03c.05,7.49-2.27,9.49-10.5,9.34h-13.71v8.65h-8.92V49.37Zm8.92,22.79h10.13c4.43-.11,4.69-.37,4.75-4.91v-5.06c-.11-4.59-.37-4.85-4.75-4.91h-10.13v14.88Z"/></g><g><circle class="cls-2" cx="7.56" cy="83.72" r="7.56"/><path class="cls-2" d="M9.48,72.5s-.09,0-.14,0c-.82-.08-1.43-.8-1.36-1.63,.04-.46,1.13-11.4,10.78-14.24,5.46-1.61,8.77,.51,11.43,2.21,2.17,1.39,3.38,2.08,5.11,1.44,4.05-1.51,7.77-8.16,8.86-10.59,.34-.76,1.23-1.09,1.98-.76,.76,.34,1.09,1.22,.76,1.98-.18,.4-4.48,9.91-10.55,12.17-3.21,1.2-5.64-.35-7.78-1.73-2.47-1.59-4.81-3.08-8.96-1.86-7.67,2.26-8.6,11.25-8.63,11.63-.07,.78-.73,1.36-1.49,1.36Z"/><path class="cls-1" d="M62.02,89.29c-.17,0-.34-.01-.51-.04-1.94-.28-3.28-2.07-3-4.01,3.08-21.49-3.03-38.22-9.21-46.02-2.83-3.57-5.88-5.68-8.6-5.92-1.95-.17-3.39-1.9-3.21-3.84s1.9-3.39,3.84-3.21c4.74,.42,9.42,3.39,13.53,8.58,7.39,9.33,14.07,27.74,10.67,51.43-.25,1.77-1.77,3.04-3.5,3.04Z"/><path class="cls-1" d="M81.88,86.64c-1.67,0-3.25-.98-3.93-2.62-.9-2.17,.12-4.66,2.29-5.56,3.69-1.54,10.09-5.68,15.2-10.64,5.75-5.58,8.68-10.92,8.24-15.03-.85-8.1-18.58-6.91-18.76-6.89l-9.49,.84,5.71-7.62c7.31-9.74,7.24-13.42,7.16-18.07-.14-8.22-3.77-10.24-4.96-10.91-10.88-6.08-39.33,6.07-54.71,15.16-2.02,1.2-4.63,.53-5.82-1.5-1.2-2.02-.53-4.63,1.49-5.82,.44-.26,10.9-6.42,23.66-11.48C65.93-.63,79.23-1.9,87.49,2.71c4.15,2.32,9.13,7.35,9.32,18.19,.09,5.11-.23,9.58-4.3,16.56,8.89,.84,18.59,4.49,19.63,14.45,.72,6.86-3,14.47-10.78,22.02-6.18,5.99-13.41,10.54-17.85,12.39-.54,.22-1.09,.33-1.63,.33Z"/></g></g></svg>